<svg fill="none" height="568" viewBox="0 0 274 568" width="274" xmlns="http://www.w3.org/2000/svg" xmlns:xlink="http://www.w3.org/1999/xlink"><mask id="a" height="568" maskUnits="userSpaceOnUse" width="274" x="0" y="0"><rect fill="#fff" height="568" rx="10" width="274"/></mask><rect fill="#483eff" height="568" rx="10" width="274"/><g mask="url(#a)"><path clip-rule="evenodd" d="m-34.692 543.101c37.939 89.437 203.459 141.916 246.652 69.419 43.194-72.497-66.099-85.653-104.735-160.569-38.635-74.916-68.657-121.674-124.482-104.607-55.824 17.068-55.375 106.32-17.436 195.757z" fill="#6259ff" fill-rule="evenodd"/><path clip-rule="evenodd" d="m233.095 601.153c60.679-28.278 92.839-143.526 41.875-171.528-50.965-28.003-57.397 47.579-108.059 75.987s-82.14 50.207-69.044 88.241 74.549 35.578 135.228 7.3z" fill="#f9818e" fill-rule="evenodd"/><path d="m165.305 469.097 10.607-10.806m33.549 16.29-12.506-10.503m-9.395 24.913-6.908 14.798" stroke="#fff" stroke-linecap="round" stroke-linejoin="bevel" stroke-width="5"/><path d="m.305 546.891c37.003 0 67-29.997 67-67s-29.997-67-67-67-67 29.997-67 67 29.997 67 67 67z" fill="#ffaf7e"/></g></svg>